<svg viewBox="0 -88 384 384" xmlns="http://www.w3.org/2000/svg" fill="none"><path d="m104 56c-26.472656 0-48 21.527344-48 48s21.527344 48 48 48 48-21.527344 48-48-21.527344-48-48-48zm0 64c-8.824219 0-16-7.175781-16-16s7.175781-16 16-16 16 7.175781 16 16-7.175781 16-16 16zm0 0" fill="#FFFFFF"/><path d="m280 152c26.472656 0 48-21.527344 48-48s-21.527344-48-48-48-48 21.527344-48 48 21.527344 48 48 48zm0-64c8.824219 0 16 7.175781 16 16s-7.175781 16-16 16-16-7.175781-16-16 7.175781-16 16-16zm0 0" fill="#FFFFFF"/><path d="m192 172.839844 23.441406 35.160156h168.558594v-208h-384v208h168.558594zm-160 3.160156v-144h320v144h-119.441406l-40.558594-60.839844-40.558594 60.839844zm0 0" fill="#FFFFFF"/></svg>