<svg width="24" height="24" xmlns="http://www.w3.org/2000/svg">

 <g>
  <title>background</title>
  <rect fill="none" id="canvas_background" height="343" width="835" y="-1" x="-1"/>
 </g>
 <g>
  <title>Layer 1</title>
  <path id="svg_1" d="m0,0l24,0l0,24l-24,0l0,-24z" fill="none"/>
  <path fill="#ffffff" id="svg_2" d="m20,8.69l0,-4.69l-4.69,0l-3.31,-3.31l-3.31,3.31l-4.69,0l0,4.69l-3.31,3.31l3.31,3.31l0,4.69l4.69,0l3.31,3.31l3.31,-3.31l4.69,0l0,-4.69l3.31,-3.31l-3.31,-3.31zm-2,5.79l0,3.52l-3.52,0l-2.48,2.48l-2.48,-2.48l-3.52,0l0,-3.52l-2.48,-2.48l2.48,-2.48l0,-3.52l3.52,0l2.48,-2.48l2.48,2.48l3.52,0l0,3.52l2.48,2.48l-2.48,2.48zm-6,-7.98l0,11c3.03,0 5.5,-2.47 5.5,-5.5s-2.47,-5.5 -5.5,-5.5z"/>
 </g>
</svg>